<svg xmlns="http://www.w3.org/2000/svg" xmlns:xlink="http://www.w3.org/1999/xlink" style="margin:auto;background:#f1f2f3;display:block;z-index:1;position:relative" width="1896" height="929" preserveAspectRatio="xMidYMid" viewBox="0 0 1896 929">
<g transform="translate(948,464.5) scale(1,1) translate(-948,-464.5)"><defs>
<linearGradient id="lg-0.6349105370518433" x1="0" x2="0" y1="0" y2="1">
  <stop stop-color="#000000" offset="0.3"/>
  <stop stop-color="#000000" offset="0.6499999999999999"/>
  <stop stop-color="#000000" offset="1"/>
</linearGradient>
<linearGradient id="fg-lg-0.6349105370518433" x1="0" x2="0" y1="0" y2="1">
  <stop stop-color="#000000" stop-opacity="1" offset="0.3"/>
  <stop stop-color="#000000" stop-opacity="0.66" offset="0.6499999999999999"/>
  <stop stop-color="#000000" stop-opacity="0" offset="1"/>
</linearGradient>
<style type="text/css">
  path { fill: none; stroke: #39ff14; stroke-width: 5px }
</style>
</defs>
<rect x="0" y="0" width="1896" height="929" fill="url(#lg-0.6349105370518433)"/><path d="M0 278.7 L-13272 929"/><path d="M14.584615384615384 278.7 L-13053.23076923077 929"/><path d="M29.16923076923077 278.7 L-12834.461538461539 929"/><path d="M43.753846153846155 278.7 L-12615.692307692309 929"/><path d="M58.33846153846154 278.7 L-12396.923076923076 929"/><path d="M72.92307692307692 278.7 L-12178.153846153846 929"/><path d="M87.50769230769231 278.7 L-11959.384615384615 929"/><path d="M102.0923076923077 278.7 L-11740.615384615385 929"/><path d="M116.67692307692307 278.7 L-11521.846153846154 929"/><path d="M131.26153846153846 278.7 L-11303.076923076924 929"/><path d="M145.84615384615384 278.7 L-11084.307692307691 929"/><path d="M160.43076923076924 278.7 L-10865.538461538461 929"/><path d="M175.01538461538462 278.7 L-10646.76923076923 929"/><path d="M189.6 278.7 L-10428 929"/><path d="M204.1846153846154 278.7 L-10209.23076923077 929"/><path d="M218.76923076923077 278.7 L-9990.461538461539 929"/><path d="M233.35384615384615 278.7 L-9771.692307692309 929"/><path d="M247.93846153846152 278.7 L-9552.923076923078 929"/><path d="M262.5230769230769 278.7 L-9334.153846153846 929"/><path d="M277.10769230769233 278.7 L-9115.384615384615 929"/><path d="M291.6923076923077 278.7 L-8896.615384615385 929"/><path d="M306.2769230769231 278.7 L-8677.846153846154 929"/><path d="M320.8615384615385 278.7 L-8459.076923076922 929"/><path d="M335.44615384615383 278.7 L-8240.307692307691 929"/><path d="M350.03076923076924 278.7 L-8021.538461538462 929"/><path d="M364.61538461538464 278.7 L-7802.7692307692305 929"/><path d="M379.2 278.7 L-7584 929"/><path d="M393.7846153846154 278.7 L-7365.2307692307695 929"/><path d="M408.3692307692308 278.7 L-7146.461538461538 929"/><path d="M422.95384615384614 278.7 L-6927.692307692308 929"/><path d="M437.53846153846155 278.7 L-6708.923076923077 929"/><path d="M452.12307692307695 278.7 L-6490.153846153846 929"/><path d="M466.7076923076923 278.7 L-6271.384615384615 929"/><path d="M481.2923076923077 278.7 L-6052.615384615385 929"/><path d="M495.87692307692305 278.7 L-5833.846153846154 929"/><path d="M510.46153846153845 278.7 L-5615.076923076923 929"/><path d="M525.0461538461539 278.7 L-5396.307692307692 929"/><path d="M539.6307692307693 278.7 L-5177.538461538462 929"/><path d="M554.2153846153847 278.7 L-4958.7692307692305 929"/><path d="M568.8 278.7 L-4740 929"/><path d="M583.3846153846154 278.7 L-4521.2307692307695 929"/><path d="M597.9692307692308 278.7 L-4302.461538461539 929"/><path d="M612.5538461538462 278.7 L-4083.6923076923085 929"/><path d="M627.1384615384616 278.7 L-3864.923076923076 929"/><path d="M641.723076923077 278.7 L-3646.1538461538457 929"/><path d="M656.3076923076923 278.7 L-3427.3846153846152 929"/><path d="M670.8923076923077 278.7 L-3208.6153846153848 929"/><path d="M685.4769230769231 278.7 L-2989.8461538461543 929"/><path d="M700.0615384615385 278.7 L-2771.076923076924 929"/><path d="M714.6461538461539 278.7 L-2552.3076923076915 929"/><path d="M729.2307692307693 278.7 L-2333.538461538461 929"/><path d="M743.8153846153846 278.7 L-2114.7692307692305 929"/><path d="M758.4 278.7 L-1896 929"/><path d="M772.9846153846154 278.7 L-1677.2307692307695 929"/><path d="M787.5692307692308 278.7 L-1458.461538461539 929"/><path d="M802.1538461538462 278.7 L-1239.6923076923085 929"/><path d="M816.7384615384616 278.7 L-1020.9230769230762 929"/><path d="M831.3230769230769 278.7 L-802.1538461538457 929"/><path d="M845.9076923076923 278.7 L-583.3846153846152 929"/><path d="M860.4923076923077 278.7 L-364.61538461538476 929"/><path d="M875.0769230769231 278.7 L-145.84615384615427 929"/><path d="M889.6615384615385 278.7 L72.92307692307622 929"/><path d="M904.2461538461539 278.7 L291.69230769230853 929"/><path d="M918.8307692307692 278.7 L510.461538461539 929"/><path d="M933.4153846153846 278.7 L729.2307692307695 929"/><path d="M948 278.7 L948 929"/><path d="M962.5846153846154 278.7 L1166.7692307692305 929"/><path d="M977.1692307692308 278.7 L1385.538461538461 929"/><path d="M991.7538461538461 278.7 L1604.3076923076915 929"/><path d="M1006.3384615384615 278.7 L1823.0769230769238 929"/><path d="M1020.9230769230769 278.7 L2041.8461538461543 929"/><path d="M1035.5076923076922 278.7 L2260.6153846153848 929"/><path d="M1050.0923076923077 278.7 L2479.3846153846152 929"/><path d="M1064.676923076923 278.7 L2698.1538461538457 929"/><path d="M1079.2615384615385 278.7 L2916.923076923076 929"/><path d="M1093.8461538461538 278.7 L3135.6923076923085 929"/><path d="M1108.4307692307693 278.7 L3354.461538461539 929"/><path d="M1123.0153846153846 278.7 L3573.2307692307695 929"/><path d="M1137.6 278.7 L3792 929"/><path d="M1152.1846153846154 278.7 L4010.7692307692305 929"/><path d="M1166.7692307692307 278.7 L4229.538461538461 929"/><path d="M1181.3538461538462 278.7 L4448.3076923076915 929"/><path d="M1195.9384615384615 278.7 L4667.076923076922 929"/><path d="M1210.5230769230768 278.7 L4885.846153846152 929"/><path d="M1225.1076923076923 278.7 L5104.615384615383 929"/><path d="M1239.6923076923076 278.7 L5323.384615384617 929"/><path d="M1254.2769230769231 278.7 L5542.153846153848 929"/><path d="M1268.8615384615384 278.7 L5760.923076923078 929"/><path d="M1283.446153846154 278.7 L5979.6923076923085 929"/><path d="M1298.0307692307692 278.7 L6198.461538461539 929"/><path d="M1312.6153846153845 278.7 L6417.2307692307695 929"/><path d="M1327.2 278.7 L6636 929"/><path d="M1341.7846153846153 278.7 L6854.7692307692305 929"/><path d="M1356.3692307692309 278.7 L7073.538461538461 929"/><path d="M1370.9538461538461 278.7 L7292.3076923076915 929"/><path d="M1385.5384615384614 278.7 L7511.076923076922 929"/><path d="M1400.123076923077 278.7 L7729.846153846152 929"/><path d="M1414.7076923076922 278.7 L7948.615384615383 929"/><path d="M1429.2923076923078 278.7 L8167.384615384617 929"/><path d="M1443.876923076923 278.7 L8386.153846153848 929"/><path d="M1458.4615384615386 278.7 L8604.923076923078 929"/><path d="M1473.0461538461539 278.7 L8823.692307692309 929"/><path d="M1487.6307692307691 278.7 L9042.461538461539 929"/><path d="M1502.2153846153847 278.7 L9261.23076923077 929"/><path d="M1516.8 278.7 L9480 929"/><path d="M1531.3846153846155 278.7 L9698.76923076923 929"/><path d="M1545.9692307692308 278.7 L9917.538461538461 929"/><path d="M1560.553846153846 278.7 L10136.307692307691 929"/><path d="M1575.1384615384616 278.7 L10355.076923076922 929"/><path d="M1589.7230769230769 278.7 L10573.846153846152 929"/><path d="M1604.3076923076924 278.7 L10792.615384615383 929"/><path d="M1618.8923076923077 278.7 L11011.384615384617 929"/><path d="M1633.4769230769232 278.7 L11230.153846153848 929"/><path d="M1648.0615384615385 278.7 L11448.923076923078 929"/><path d="M1662.6461538461538 278.7 L11667.692307692309 929"/><path d="M1677.2307692307693 278.7 L11886.461538461539 929"/><path d="M1691.8153846153846 278.7 L12105.23076923077 929"/><path d="M1706.4 278.7 L12324 929"/><path d="M1720.9846153846154 278.7 L12542.76923076923 929"/><path d="M1735.5692307692307 278.7 L12761.538461538461 929"/><path d="M1750.1538461538462 278.7 L12980.307692307691 929"/><path d="M1764.7384615384615 278.7 L13199.076923076922 929"/><path d="M1779.323076923077 278.7 L13417.846153846152 929"/><path d="M1793.9076923076923 278.7 L13636.615384615383 929"/><path d="M1808.4923076923078 278.7 L13855.384615384617 929"/><path d="M1823.076923076923 278.7 L14074.153846153848 929"/><path d="M1837.6615384615384 278.7 L14292.923076923078 929"/><path d="M1852.246153846154 278.7 L14511.692307692309 929"/><path d="M1866.8307692307692 278.7 L14730.461538461539 929"/><path d="M1881.4153846153847 278.7 L14949.23076923077 929"/><path d="M1896 278.7 L15168 929"/><g>
<path d="M0 278.7 L1896 278.7"/>
<animateTransform attributeName="transform" type="translate" repeatCount="indefinite" calcMode="linear" keyTimes="0;1" values="0 0;0 4.925349112426035" begin="0s" dur="0.9803921568627451s"/>

</g><g>
<path d="M0 283.625349112426 L1896 283.625349112426"/>
<animateTransform attributeName="transform" type="translate" repeatCount="indefinite" calcMode="linear" keyTimes="0;1" values="0 0;0 9.85069822485207" begin="0s" dur="0.9803921568627451s"/>

</g><g>
<path d="M0 293.4760473372781 L1896 293.4760473372781"/>
<animateTransform attributeName="transform" type="translate" repeatCount="indefinite" calcMode="linear" keyTimes="0;1" values="0 0;0 14.776047337278106" begin="0s" dur="0.9803921568627451s"/>

</g><g>
<path d="M0 308.2520946745562 L1896 308.2520946745562"/>
<animateTransform attributeName="transform" type="translate" repeatCount="indefinite" calcMode="linear" keyTimes="0;1" values="0 0;0 19.70139644970414" begin="0s" dur="0.9803921568627451s"/>

</g><g>
<path d="M0 327.9534911242603 L1896 327.9534911242603"/>
<animateTransform attributeName="transform" type="translate" repeatCount="indefinite" calcMode="linear" keyTimes="0;1" values="0 0;0 24.626745562130175" begin="0s" dur="0.9803921568627451s"/>

</g><g>
<path d="M0 352.5802366863905 L1896 352.5802366863905"/>
<animateTransform attributeName="transform" type="translate" repeatCount="indefinite" calcMode="linear" keyTimes="0;1" values="0 0;0 29.55209467455621" begin="0s" dur="0.9803921568627451s"/>

</g><g>
<path d="M0 382.1323313609467 L1896 382.1323313609467"/>
<animateTransform attributeName="transform" type="translate" repeatCount="indefinite" calcMode="linear" keyTimes="0;1" values="0 0;0 34.47744378698224" begin="0s" dur="0.9803921568627451s"/>

</g><g>
<path d="M0 416.60977514792893 L1896 416.60977514792893"/>
<animateTransform attributeName="transform" type="translate" repeatCount="indefinite" calcMode="linear" keyTimes="0;1" values="0 0;0 39.402792899408276" begin="0s" dur="0.9803921568627451s"/>

</g><g>
<path d="M0 456.0125680473372 L1896 456.0125680473372"/>
<animateTransform attributeName="transform" type="translate" repeatCount="indefinite" calcMode="linear" keyTimes="0;1" values="0 0;0 44.32814201183431" begin="0s" dur="0.9803921568627451s"/>

</g><g>
<path d="M0 500.3407100591715 L1896 500.3407100591715"/>
<animateTransform attributeName="transform" type="translate" repeatCount="indefinite" calcMode="linear" keyTimes="0;1" values="0 0;0 49.25349112426034" begin="0s" dur="0.9803921568627451s"/>

</g><g>
<path d="M0 549.5942011834319 L1896 549.5942011834319"/>
<animateTransform attributeName="transform" type="translate" repeatCount="indefinite" calcMode="linear" keyTimes="0;1" values="0 0;0 54.178840236686376" begin="0s" dur="0.9803921568627451s"/>

</g><g>
<path d="M0 603.7730414201183 L1896 603.7730414201183"/>
<animateTransform attributeName="transform" type="translate" repeatCount="indefinite" calcMode="linear" keyTimes="0;1" values="0 0;0 59.10418934911242" begin="0s" dur="0.9803921568627451s"/>

</g><g>
<path d="M0 662.8772307692307 L1896 662.8772307692307"/>
<animateTransform attributeName="transform" type="translate" repeatCount="indefinite" calcMode="linear" keyTimes="0;1" values="0 0;0 64.02953846153845" begin="0s" dur="0.9803921568627451s"/>

</g><g>
<path d="M0 726.9067692307691 L1896 726.9067692307691"/>
<animateTransform attributeName="transform" type="translate" repeatCount="indefinite" calcMode="linear" keyTimes="0;1" values="0 0;0 68.95488757396448" begin="0s" dur="0.9803921568627451s"/>

</g><g>
<path d="M0 795.8616568047336 L1896 795.8616568047336"/>
<animateTransform attributeName="transform" type="translate" repeatCount="indefinite" calcMode="linear" keyTimes="0;1" values="0 0;0 73.88023668639052" begin="0s" dur="0.9803921568627451s"/>

</g><g>
<path d="M0 869.7418934911241 L1896 869.7418934911241"/>
<animateTransform attributeName="transform" type="translate" repeatCount="indefinite" calcMode="linear" keyTimes="0;1" values="0 0;0 78.80558579881655" begin="0s" dur="0.9803921568627451s"/>

</g><g>
<path d="M0 948.5474792899406 L1896 948.5474792899406"/>
<animateTransform attributeName="transform" type="translate" repeatCount="indefinite" calcMode="linear" keyTimes="0;1" values="0 0;0 83.73093491124258" begin="0s" dur="0.9803921568627451s"/>

</g><rect x="0" y="0" width="1896" height="929" fill="url(#fg-lg-0.6349105370518433)"/></g>
</svg>